<svg width="512" height="512" viewBox="0 0 512 512" fill="none" xmlns="http://www.w3.org/2000/svg">
  <rect width="512" height="512" rx="48" fill="#0A0405"/>
  <circle cx="308" cy="176" r="128" fill="url(#moon)"/>
  <path d="M131 350C175 322 214 300 241 257C262 223 271 177 265 130C311 171 336 218 344 265C351 306 344 338 321 385C285 348 237 330 181 331L131 350Z" fill="#0D0A0B"/>
  <path d="M222 140C240 153 251 169 258 192C219 192 191 207 165 236C171 195 189 164 222 140Z" fill="#8B0000"/>
  <path d="M192 336C236 338 271 353 301 387C252 399 206 396 161 375L192 336Z" fill="#C41E3A"/>
  <circle cx="247" cy="201" r="7" fill="#C9A84C"/>
  <defs>
    <radialGradient id="moon" cx="0" cy="0" r="1" gradientUnits="userSpaceOnUse" gradientTransform="translate(308 176) rotate(90) scale(128)">
      <stop stop-color="#C41E3A"/>
      <stop offset="1" stop-color="#8B0000"/>
    </radialGradient>
  </defs>
</svg>
